<svg xmlns="http://www.w3.org/2000/svg" viewBox="0 0 32 32" fill="none">
  <!-- Outer shield: single open stroke, right shoulder → bottom → left arm curls up past top-center -->
  <path d="M21.5 5.5 C25 5.5 28.5 9 28.5 14 C28.5 21 24 27 16 30.5 C8 27 3.5 21 3.5 14 C3.5 9 7 5.5 10.5 5.5 C12.5 5.5 14.5 5 16 4"
        stroke="#2D8EA5" stroke-width="2.2" stroke-linecap="round" stroke-linejoin="round"/>
  <!-- Inner shield: same open-stroke motif, inset -->
  <path d="M20 10.5 C22.5 10.5 24.5 13 24.5 16.5 C24.5 21.5 21.5 26 16 28.5 C10.5 26 7.5 21.5 7.5 16.5 C7.5 13 9.5 10.5 12 10.5 C13.5 10.5 15 9.5 16 8.5"
        stroke="#2D8EA5" stroke-width="1.8" stroke-linecap="round" stroke-linejoin="round"/>
</svg>
